<?xml version="1.0" encoding="UTF-8" standalone="no"?>
<!DOCTYPE svg PUBLIC "-//W3C//DTD SVG 1.1//EN"
 "http://www.w3.org/Graphics/SVG/1.1/DTD/svg11.dtd">
<!-- Generated by graphviz version 15.1.0 (0)
 -->
<!-- Title: G Pages: 1 -->
<svg width="214pt" height="742pt"
 viewBox="0.00 0.00 214.00 742.00" xmlns="http://www.w3.org/2000/svg" xmlns:xlink="http://www.w3.org/1999/xlink">
<g id="graph0" class="graph" transform="scale(1 1) rotate(0) translate(18 724.35)">
<title>G</title>
<!-- packet -->
<g id="node1" class="node">
<title>packet</title>
<path fill="#dbeafe" stroke="#475569" d="M157.29,-706.35C157.29,-706.35 21,-706.35 21,-706.35 15,-706.35 9,-700.35 9,-694.35 9,-694.35 9,-675.45 9,-675.45 9,-669.45 15,-663.45 21,-663.45 21,-663.45 157.29,-663.45 157.29,-663.45 163.29,-663.45 169.29,-669.45 169.29,-675.45 169.29,-675.45 169.29,-694.35 169.29,-694.35 169.29,-700.35 163.29,-706.35 157.29,-706.35"/>
<text xml:space="preserve" text-anchor="middle" x="89.14" y="-689.65" font-family="Inter" font-size="10.00">DrawPacket</text>
<text xml:space="preserve" text-anchor="middle" x="89.14" y="-675.4" font-family="Inter" font-size="10.00">Mesh · Material · Object Index</text>
</g>
<!-- pkey -->
<g id="node2" class="node">
<title>pkey</title>
<path fill="#f8fafc" stroke="#475569" d="M166.29,-633.45C166.29,-633.45 12,-633.45 12,-633.45 6,-633.45 0,-627.45 0,-621.45 0,-621.45 0,-588.3 0,-588.3 0,-582.3 6,-576.3 12,-576.3 12,-576.3 166.29,-576.3 166.29,-576.3 172.29,-576.3 178.29,-582.3 178.29,-588.3 178.29,-588.3 178.29,-621.45 178.29,-621.45 178.29,-627.45 172.29,-633.45 166.29,-633.45"/>
<text xml:space="preserve" text-anchor="middle" x="89.14" y="-616.75" font-family="Inter" font-size="10.00">Build PipelineKey</text>
<text xml:space="preserve" text-anchor="middle" x="89.14" y="-602.5" font-family="Inter" font-size="10.00">Shader Variant · Vertex Layout</text>
<text xml:space="preserve" text-anchor="middle" x="89.14" y="-588.25" font-family="Inter" font-size="10.00">Formats · Depth · Blend · Samples</text>
</g>
<!-- packet&#45;&gt;pkey -->
<g id="edge1" class="edge">
<title>packet&#45;&gt;pkey</title>
<path fill="none" stroke="#64748b" stroke-width="1.3" d="M89.14,-662.99C89.14,-656.71 89.14,-649.62 89.14,-642.62"/>
<polygon fill="#64748b" stroke="#64748b" stroke-width="1.3" points="91.6,-642.85 89.15,-635.85 86.7,-642.85 91.6,-642.85"/>
</g>
<!-- presolve -->
<g id="node3" class="node">
<title>presolve</title>
<path fill="#f8fafc" stroke="#475569" d="M158.04,-546.3C158.04,-546.3 20.25,-546.3 20.25,-546.3 14.25,-546.3 8.25,-540.3 8.25,-534.3 8.25,-534.3 8.25,-515.4 8.25,-515.4 8.25,-509.4 14.25,-503.4 20.25,-503.4 20.25,-503.4 158.04,-503.4 158.04,-503.4 164.04,-503.4 170.04,-509.4 170.04,-515.4 170.04,-515.4 170.04,-534.3 170.04,-534.3 170.04,-540.3 164.04,-546.3 158.04,-546.3"/>
<text xml:space="preserve" text-anchor="middle" x="89.14" y="-529.6" font-family="Inter" font-size="10.00">Resolve Stable PipelineHandle</text>
<text xml:space="preserve" text-anchor="middle" x="89.14" y="-515.35" font-family="Inter" font-size="10.00">to Active RHI Pipeline Version</text>
</g>
<!-- pkey&#45;&gt;presolve -->
<g id="edge2" class="edge">
<title>pkey&#45;&gt;presolve</title>
<path fill="none" stroke="#64748b" stroke-width="1.3" d="M89.14,-576.15C89.14,-569.4 89.14,-562.16 89.14,-555.34"/>
<polygon fill="#64748b" stroke="#64748b" stroke-width="1.3" points="91.6,-555.34 89.15,-548.34 86.7,-555.34 91.6,-555.34"/>
</g>
<!-- frame -->
<g id="node4" class="node">
<title>frame</title>
<path fill="#f8fafc" stroke="#475569" d="M119.04,-473.4C119.04,-473.4 59.25,-473.4 59.25,-473.4 53.25,-473.4 47.25,-467.4 47.25,-461.4 47.25,-461.4 47.25,-442.5 47.25,-442.5 47.25,-436.5 53.25,-430.5 59.25,-430.5 59.25,-430.5 119.04,-430.5 119.04,-430.5 125.04,-430.5 131.04,-436.5 131.04,-442.5 131.04,-442.5 131.04,-461.4 131.04,-461.4 131.04,-467.4 125.04,-473.4 119.04,-473.4"/>
<text xml:space="preserve" text-anchor="middle" x="89.14" y="-456.7" font-family="Inter" font-size="10.00">Bind Group 0</text>
<text xml:space="preserve" text-anchor="middle" x="89.14" y="-442.45" font-family="Inter" font-size="10.00">Frame / View</text>
</g>
<!-- presolve&#45;&gt;frame -->
<g id="edge3" class="edge">
<title>presolve&#45;&gt;frame</title>
<path fill="none" stroke="#64748b" stroke-width="1.3" d="M89.14,-502.96C89.14,-496.41 89.14,-489.06 89.14,-482.05"/>
<polygon fill="#64748b" stroke="#64748b" stroke-width="1.3" points="91.6,-482.41 89.15,-475.41 86.7,-482.41 91.6,-482.41"/>
</g>
<!-- scene -->
<g id="node5" class="node">
<title>scene</title>
<path fill="#f8fafc" stroke="#475569" d="M119.04,-400.5C119.04,-400.5 59.25,-400.5 59.25,-400.5 53.25,-400.5 47.25,-394.5 47.25,-388.5 47.25,-388.5 47.25,-369.6 47.25,-369.6 47.25,-363.6 53.25,-357.6 59.25,-357.6 59.25,-357.6 119.04,-357.6 119.04,-357.6 125.04,-357.6 131.04,-363.6 131.04,-369.6 131.04,-369.6 131.04,-388.5 131.04,-388.5 131.04,-394.5 125.04,-400.5 119.04,-400.5"/>
<text xml:space="preserve" text-anchor="middle" x="89.14" y="-383.8" font-family="Inter" font-size="10.00">Bind Group 1</text>
<text xml:space="preserve" text-anchor="middle" x="89.14" y="-369.55" font-family="Inter" font-size="10.00">Scene</text>
</g>
<!-- frame&#45;&gt;scene -->
<g id="edge4" class="edge">
<title>frame&#45;&gt;scene</title>
<path fill="none" stroke="#64748b" stroke-width="1.3" d="M89.14,-430.06C89.14,-423.51 89.14,-416.16 89.14,-409.15"/>
<polygon fill="#64748b" stroke="#64748b" stroke-width="1.3" points="91.6,-409.51 89.15,-402.51 86.7,-409.51 91.6,-409.51"/>
</g>
<!-- material -->
<g id="node6" class="node">
<title>material</title>
<path fill="#f8fafc" stroke="#475569" d="M129.91,-327.6C129.91,-327.6 48.38,-327.6 48.38,-327.6 42.38,-327.6 36.38,-321.6 36.38,-315.6 36.38,-315.6 36.38,-296.7 36.38,-296.7 36.38,-290.7 42.38,-284.7 48.38,-284.7 48.38,-284.7 129.91,-284.7 129.91,-284.7 135.91,-284.7 141.91,-290.7 141.91,-296.7 141.91,-296.7 141.91,-315.6 141.91,-315.6 141.91,-321.6 135.91,-327.6 129.91,-327.6"/>
<text xml:space="preserve" text-anchor="middle" x="89.14" y="-310.9" font-family="Inter" font-size="10.00">Bind Group 2</text>
<text xml:space="preserve" text-anchor="middle" x="89.14" y="-296.65" font-family="Inter" font-size="10.00">Material / Feature</text>
</g>
<!-- scene&#45;&gt;material -->
<g id="edge5" class="edge">
<title>scene&#45;&gt;material</title>
<path fill="none" stroke="#64748b" stroke-width="1.3" d="M89.14,-357.16C89.14,-350.61 89.14,-343.26 89.14,-336.25"/>
<polygon fill="#64748b" stroke="#64748b" stroke-width="1.3" points="91.6,-336.61 89.15,-329.61 86.7,-336.61 91.6,-336.61"/>
</g>
<!-- draw -->
<g id="node7" class="node">
<title>draw</title>
<path fill="#f8fafc" stroke="#475569" d="M152.41,-254.7C152.41,-254.7 25.88,-254.7 25.88,-254.7 19.88,-254.7 13.88,-248.7 13.88,-242.7 13.88,-242.7 13.88,-223.8 13.88,-223.8 13.88,-217.8 19.88,-211.8 25.88,-211.8 25.88,-211.8 152.41,-211.8 152.41,-211.8 158.41,-211.8 164.41,-217.8 164.41,-223.8 164.41,-223.8 164.41,-242.7 164.41,-242.7 164.41,-248.7 158.41,-254.7 152.41,-254.7"/>
<text xml:space="preserve" text-anchor="middle" x="89.14" y="-238" font-family="Inter" font-size="10.00">Group 3 or Immediate Data</text>
<text xml:space="preserve" text-anchor="middle" x="89.14" y="-223.75" font-family="Inter" font-size="10.00">Object / Draw Index</text>
</g>
<!-- material&#45;&gt;draw -->
<g id="edge6" class="edge">
<title>material&#45;&gt;draw</title>
<path fill="none" stroke="#64748b" stroke-width="1.3" d="M89.14,-284.26C89.14,-277.71 89.14,-270.36 89.14,-263.35"/>
<polygon fill="#64748b" stroke="#64748b" stroke-width="1.3" points="91.6,-263.71 89.15,-256.71 86.7,-263.71 91.6,-263.71"/>
</g>
<!-- buffers -->
<g id="node8" class="node">
<title>buffers</title>
<path fill="#f8fafc" stroke="#475569" d="M141.54,-181.8C141.54,-181.8 36.75,-181.8 36.75,-181.8 30.75,-181.8 24.75,-175.8 24.75,-169.8 24.75,-169.8 24.75,-150.9 24.75,-150.9 24.75,-144.9 30.75,-138.9 36.75,-138.9 36.75,-138.9 141.54,-138.9 141.54,-138.9 147.54,-138.9 153.54,-144.9 153.54,-150.9 153.54,-150.9 153.54,-169.8 153.54,-169.8 153.54,-175.8 147.54,-181.8 141.54,-181.8"/>
<text xml:space="preserve" text-anchor="middle" x="89.14" y="-165.1" font-family="Inter" font-size="10.00">Resolve Vertex + Index</text>
<text xml:space="preserve" text-anchor="middle" x="89.14" y="-150.85" font-family="Inter" font-size="10.00">Buffer Slices</text>
</g>
<!-- draw&#45;&gt;buffers -->
<g id="edge7" class="edge">
<title>draw&#45;&gt;buffers</title>
<path fill="none" stroke="#64748b" stroke-width="1.3" d="M89.14,-211.36C89.14,-204.81 89.14,-197.46 89.14,-190.45"/>
<polygon fill="#64748b" stroke="#64748b" stroke-width="1.3" points="91.6,-190.81 89.15,-183.81 86.7,-190.81 91.6,-190.81"/>
</g>
<!-- cache -->
<g id="node9" class="node">
<title>cache</title>
<path fill="#f8fafc" stroke="#475569" d="M159.16,-108.9C159.16,-108.9 19.12,-108.9 19.12,-108.9 13.12,-108.9 7.12,-102.9 7.12,-96.9 7.12,-96.9 7.12,-78 7.12,-78 7.12,-72 13.12,-66 19.12,-66 19.12,-66 159.16,-66 159.16,-66 165.16,-66 171.16,-72 171.16,-78 171.16,-78 171.16,-96.9 171.16,-96.9 171.16,-102.9 165.16,-108.9 159.16,-108.9"/>
<text xml:space="preserve" text-anchor="middle" x="89.14" y="-92.2" font-family="Inter" font-size="10.00">Command State Cache</text>
<text xml:space="preserve" text-anchor="middle" x="89.14" y="-77.95" font-family="Inter" font-size="10.00">Suppress Redundant Bind Calls</text>
</g>
<!-- buffers&#45;&gt;cache -->
<g id="edge8" class="edge">
<title>buffers&#45;&gt;cache</title>
<path fill="none" stroke="#64748b" stroke-width="1.3" d="M89.14,-138.46C89.14,-131.91 89.14,-124.56 89.14,-117.55"/>
<polygon fill="#64748b" stroke="#64748b" stroke-width="1.3" points="91.6,-117.91 89.15,-110.91 86.7,-117.91 91.6,-117.91"/>
</g>
<!-- encode -->
<g id="node10" class="node">
<title>encode</title>
<path fill="#dcfce7" stroke="#475569" d="M153.91,-36C153.91,-36 24.38,-36 24.38,-36 18.38,-36 12.38,-30 12.38,-24 12.38,-24 12.38,-12 12.38,-12 12.38,-6 18.38,0 24.38,0 24.38,0 153.91,0 153.91,0 159.91,0 165.91,-6 165.91,-12 165.91,-12 165.91,-24 165.91,-24 165.91,-30 159.91,-36 153.91,-36"/>
<text xml:space="preserve" text-anchor="middle" x="89.14" y="-15.62" font-family="Inter" font-size="10.00">Encode Draw / DrawIndexed</text>
</g>
<!-- cache&#45;&gt;encode -->
<g id="edge9" class="edge">
<title>cache&#45;&gt;encode</title>
<path fill="none" stroke="#64748b" stroke-width="1.3" d="M89.14,-65.85C89.14,-59.35 89.14,-52.08 89.14,-45.24"/>
<polygon fill="#64748b" stroke="#64748b" stroke-width="1.3" points="91.6,-45.27 89.15,-38.27 86.7,-45.27 91.6,-45.27"/>
</g>
</g>
</svg>
