<?xml version="1.0" encoding="UTF-8" standalone="no"?>
<!DOCTYPE svg PUBLIC "-//W3C//DTD SVG 1.1//EN"
 "http://www.w3.org/Graphics/SVG/1.1/DTD/svg11.dtd">
<!-- Generated by graphviz version 15.1.0 (0)
 -->
<!-- Title: G Pages: 1 -->
<svg width="590pt" height="658pt"
 viewBox="0.00 0.00 590.00 658.00" xmlns="http://www.w3.org/2000/svg" xmlns:xlink="http://www.w3.org/1999/xlink">
<g id="graph0" class="graph" transform="scale(1 1) rotate(0) translate(18 639.85)">
<title>G</title>
<!-- begin -->
<g id="node1" class="node">
<title>begin</title>
<path fill="#dbeafe" stroke="#475569" d="M312.29,-621.85C312.29,-621.85 257,-621.85 257,-621.85 251,-621.85 245,-615.85 245,-609.85 245,-609.85 245,-597.85 245,-597.85 245,-591.85 251,-585.85 257,-585.85 257,-585.85 312.29,-585.85 312.29,-585.85 318.29,-585.85 324.29,-591.85 324.29,-597.85 324.29,-597.85 324.29,-609.85 324.29,-609.85 324.29,-615.85 318.29,-621.85 312.29,-621.85"/>
<text xml:space="preserve" text-anchor="middle" x="284.64" y="-601.48" font-family="Inter" font-size="10.00">BeginFrame</text>
</g>
<!-- apply -->
<g id="node2" class="node">
<title>apply</title>
<path fill="#f8fafc" stroke="#475569" d="M372.66,-553.85C372.66,-553.85 196.62,-553.85 196.62,-553.85 190.62,-553.85 184.62,-547.85 184.62,-541.85 184.62,-541.85 184.62,-508.7 184.62,-508.7 184.62,-502.7 190.62,-496.7 196.62,-496.7 196.62,-496.7 372.66,-496.7 372.66,-496.7 378.66,-496.7 384.66,-502.7 384.66,-508.7 384.66,-508.7 384.66,-541.85 384.66,-541.85 384.66,-547.85 378.66,-553.85 372.66,-553.85"/>
<text xml:space="preserve" text-anchor="middle" x="284.64" y="-537.15" font-family="Inter" font-size="10.00">Apply Scene Transactions</text>
<text xml:space="preserve" text-anchor="middle" x="284.64" y="-522.9" font-family="Inter" font-size="10.00">Commit Reloads · Advance GPU Serials</text>
<text xml:space="preserve" text-anchor="middle" x="284.64" y="-508.65" font-family="Inter" font-size="10.00">Reset Frame Allocators</text>
</g>
<!-- begin&#45;&gt;apply -->
<g id="edge1" class="edge">
<title>begin&#45;&gt;apply</title>
<path fill="none" stroke="#64748b" stroke-width="1.4" d="M284.64,-585.47C284.64,-578.96 284.64,-571.28 284.64,-563.64"/>
<polygon fill="#64748b" stroke="#64748b" stroke-width="1.4" points="287.27,-563.71 284.65,-556.21 282.02,-563.71 287.27,-563.71"/>
</g>
<!-- jobs -->
<g id="node3" class="node">
<title>jobs</title>
<path fill="#ede9fe" stroke="#475569" d="M328.79,-464.7C328.79,-464.7 240.5,-464.7 240.5,-464.7 234.5,-464.7 228.5,-458.7 228.5,-452.7 228.5,-452.7 228.5,-440.7 228.5,-440.7 228.5,-434.7 234.5,-428.7 240.5,-428.7 240.5,-428.7 328.79,-428.7 328.79,-428.7 334.79,-428.7 340.79,-434.7 340.79,-440.7 340.79,-440.7 340.79,-452.7 340.79,-452.7 340.79,-458.7 334.79,-464.7 328.79,-464.7"/>
<text xml:space="preserve" text-anchor="middle" x="284.64" y="-444.33" font-family="Inter" font-size="10.00">Parallel Preparation</text>
</g>
<!-- apply&#45;&gt;jobs -->
<g id="edge2" class="edge">
<title>apply&#45;&gt;jobs</title>
<path fill="none" stroke="#64748b" stroke-width="1.4" d="M284.64,-496.63C284.64,-489.33 284.64,-481.46 284.64,-474.22"/>
<polygon fill="#64748b" stroke="#64748b" stroke-width="1.4" points="287.27,-474.46 284.65,-466.96 282.02,-474.46 287.27,-474.46"/>
</g>
<!-- anim -->
<g id="node4" class="node">
<title>anim</title>
<path fill="#f8fafc" stroke="#475569" d="M121.29,-396.7C121.29,-396.7 12,-396.7 12,-396.7 6,-396.7 0,-390.7 0,-384.7 0,-384.7 0,-372.7 0,-372.7 0,-366.7 6,-360.7 12,-360.7 12,-360.7 121.29,-360.7 121.29,-360.7 127.29,-360.7 133.29,-366.7 133.29,-372.7 133.29,-372.7 133.29,-384.7 133.29,-384.7 133.29,-390.7 127.29,-396.7 121.29,-396.7"/>
<text xml:space="preserve" text-anchor="middle" x="66.64" y="-376.33" font-family="Inter" font-size="10.00">Animation + Transforms</text>
</g>
<!-- jobs&#45;&gt;anim -->
<g id="edge3" class="edge">
<title>jobs&#45;&gt;anim</title>
<path fill="none" stroke="#64748b" stroke-width="1.4" d="M228.22,-428.62C199.17,-419.82 163.57,-409.04 133.18,-399.84"/>
<polygon fill="#64748b" stroke="#64748b" stroke-width="1.4" points="134.32,-397.45 126.38,-397.78 132.8,-402.47 134.32,-397.45"/>
</g>
<!-- extract -->
<g id="node5" class="node">
<title>extract</title>
<path fill="#f8fafc" stroke="#475569" d="M268.66,-396.7C268.66,-396.7 170.62,-396.7 170.62,-396.7 164.62,-396.7 158.62,-390.7 158.62,-384.7 158.62,-384.7 158.62,-372.7 158.62,-372.7 158.62,-366.7 164.62,-360.7 170.62,-360.7 170.62,-360.7 268.66,-360.7 268.66,-360.7 274.66,-360.7 280.66,-366.7 280.66,-372.7 280.66,-372.7 280.66,-384.7 280.66,-384.7 280.66,-390.7 274.66,-396.7 268.66,-396.7"/>
<text xml:space="preserve" text-anchor="middle" x="219.64" y="-376.33" font-family="Inter" font-size="10.00">Snapshot + Extraction</text>
</g>
<!-- jobs&#45;&gt;extract -->
<g id="edge4" class="edge">
<title>jobs&#45;&gt;extract</title>
<path fill="none" stroke="#64748b" stroke-width="1.4" d="M267.57,-428.36C260.16,-420.84 251.37,-411.91 243.34,-403.76"/>
<polygon fill="#64748b" stroke="#64748b" stroke-width="1.4" points="245.45,-402.17 238.32,-398.66 241.71,-405.85 245.45,-402.17"/>
</g>
<!-- visibility -->
<g id="node6" class="node">
<title>visibility</title>
<path fill="#f8fafc" stroke="#475569" d="M383.91,-396.7C383.91,-396.7 317.38,-396.7 317.38,-396.7 311.38,-396.7 305.38,-390.7 305.38,-384.7 305.38,-384.7 305.38,-372.7 305.38,-372.7 305.38,-366.7 311.38,-360.7 317.38,-360.7 317.38,-360.7 383.91,-360.7 383.91,-360.7 389.91,-360.7 395.91,-366.7 395.91,-372.7 395.91,-372.7 395.91,-384.7 395.91,-384.7 395.91,-390.7 389.91,-396.7 383.91,-396.7"/>
<text xml:space="preserve" text-anchor="middle" x="350.64" y="-376.33" font-family="Inter" font-size="10.00">Visibility + LOD</text>
</g>
<!-- jobs&#45;&gt;visibility -->
<g id="edge5" class="edge">
<title>jobs&#45;&gt;visibility</title>
<path fill="none" stroke="#64748b" stroke-width="1.4" d="M301.99,-428.36C309.5,-420.84 318.44,-411.91 326.58,-403.76"/>
<polygon fill="#64748b" stroke="#64748b" stroke-width="1.4" points="328.25,-405.81 331.69,-398.65 324.53,-402.1 328.25,-405.81"/>
</g>
<!-- packets -->
<g id="node7" class="node">
<title>packets</title>
<path fill="#f8fafc" stroke="#475569" d="M541.91,-396.7C541.91,-396.7 433.38,-396.7 433.38,-396.7 427.38,-396.7 421.38,-390.7 421.38,-384.7 421.38,-384.7 421.38,-372.7 421.38,-372.7 421.38,-366.7 427.38,-360.7 433.38,-360.7 433.38,-360.7 541.91,-360.7 541.91,-360.7 547.91,-360.7 553.91,-366.7 553.91,-372.7 553.91,-372.7 553.91,-384.7 553.91,-384.7 553.91,-390.7 547.91,-396.7 541.91,-396.7"/>
<text xml:space="preserve" text-anchor="middle" x="487.64" y="-376.33" font-family="Inter" font-size="10.00">Draw Packets + Uploads</text>
</g>
<!-- jobs&#45;&gt;packets -->
<g id="edge6" class="edge">
<title>jobs&#45;&gt;packets</title>
<path fill="none" stroke="#64748b" stroke-width="1.4" d="M338.25,-428.27C364.96,-419.59 397.41,-409.04 425.24,-399.99"/>
<polygon fill="#64748b" stroke="#64748b" stroke-width="1.4" points="425.76,-402.58 432.08,-397.77 424.14,-397.59 425.76,-402.58"/>
</g>
<!-- build -->
<g id="node8" class="node">
<title>build</title>
<path fill="#dcfce7" stroke="#475569" d="M329.54,-328.7C329.54,-328.7 239.75,-328.7 239.75,-328.7 233.75,-328.7 227.75,-322.7 227.75,-316.7 227.75,-316.7 227.75,-304.7 227.75,-304.7 227.75,-298.7 233.75,-292.7 239.75,-292.7 239.75,-292.7 329.54,-292.7 329.54,-292.7 335.54,-292.7 341.54,-298.7 341.54,-304.7 341.54,-304.7 341.54,-316.7 341.54,-316.7 341.54,-322.7 335.54,-328.7 329.54,-328.7"/>
<text xml:space="preserve" text-anchor="middle" x="284.64" y="-308.33" font-family="Inter" font-size="10.00">Build Render Graph</text>
</g>
<!-- anim&#45;&gt;build -->
<g id="edge7" class="edge">
<title>anim&#45;&gt;build</title>
<path fill="none" stroke="#64748b" stroke-width="1.4" d="M124.21,-360.27C153.13,-351.52 188.32,-340.86 218.37,-331.77"/>
<polygon fill="#64748b" stroke="#64748b" stroke-width="1.4" points="219.07,-334.3 225.49,-329.61 217.55,-329.27 219.07,-334.3"/>
</g>
<!-- extract&#45;&gt;build -->
<g id="edge8" class="edge">
<title>extract&#45;&gt;build</title>
<path fill="none" stroke="#64748b" stroke-width="1.4" d="M236.72,-360.36C244.13,-352.84 252.92,-343.91 260.95,-335.76"/>
<polygon fill="#64748b" stroke="#64748b" stroke-width="1.4" points="262.58,-337.85 265.97,-330.66 258.84,-334.17 262.58,-337.85"/>
</g>
<!-- visibility&#45;&gt;build -->
<g id="edge9" class="edge">
<title>visibility&#45;&gt;build</title>
<path fill="none" stroke="#64748b" stroke-width="1.4" d="M333.3,-360.36C325.79,-352.84 316.85,-343.91 308.71,-335.76"/>
<polygon fill="#64748b" stroke="#64748b" stroke-width="1.4" points="310.76,-334.1 303.6,-330.65 307.04,-337.81 310.76,-334.1"/>
</g>
<!-- packets&#45;&gt;build -->
<g id="edge10" class="edge">
<title>packets&#45;&gt;build</title>
<path fill="none" stroke="#64748b" stroke-width="1.4" d="M434.04,-360.27C407.33,-351.59 374.88,-341.04 347.05,-331.99"/>
<polygon fill="#64748b" stroke="#64748b" stroke-width="1.4" points="348.15,-329.59 340.21,-329.77 346.53,-334.58 348.15,-329.59"/>
</g>
<!-- compile -->
<g id="node9" class="node">
<title>compile</title>
<path fill="#f8fafc" stroke="#475569" d="M339.66,-260.7C339.66,-260.7 229.62,-260.7 229.62,-260.7 223.62,-260.7 217.62,-254.7 217.62,-248.7 217.62,-248.7 217.62,-229.8 217.62,-229.8 217.62,-223.8 223.62,-217.8 229.62,-217.8 229.62,-217.8 339.66,-217.8 339.66,-217.8 345.66,-217.8 351.66,-223.8 351.66,-229.8 351.66,-229.8 351.66,-248.7 351.66,-248.7 351.66,-254.7 345.66,-260.7 339.66,-260.7"/>
<text xml:space="preserve" text-anchor="middle" x="284.64" y="-244" font-family="Inter" font-size="10.00">Validate · Order Passes</text>
<text xml:space="preserve" text-anchor="middle" x="284.64" y="-229.75" font-family="Inter" font-size="10.00">Allocate/Alias Transients</text>
</g>
<!-- build&#45;&gt;compile -->
<g id="edge11" class="edge">
<title>build&#45;&gt;compile</title>
<path fill="none" stroke="#64748b" stroke-width="1.4" d="M284.64,-292.53C284.64,-285.94 284.64,-278.2 284.64,-270.73"/>
<polygon fill="#64748b" stroke="#64748b" stroke-width="1.4" points="287.27,-270.8 284.65,-263.3 282.02,-270.8 287.27,-270.8"/>
</g>
<!-- record -->
<g id="node10" class="node">
<title>record</title>
<path fill="#fef3c7" stroke="#475569" d="M346.79,-185.8C346.79,-185.8 222.5,-185.8 222.5,-185.8 216.5,-185.8 210.5,-179.8 210.5,-173.8 210.5,-173.8 210.5,-154.9 210.5,-154.9 210.5,-148.9 216.5,-142.9 222.5,-142.9 222.5,-142.9 346.79,-142.9 346.79,-142.9 352.79,-142.9 358.79,-148.9 358.79,-154.9 358.79,-154.9 358.79,-173.8 358.79,-173.8 358.79,-179.8 352.79,-185.8 346.79,-185.8"/>
<text xml:space="preserve" text-anchor="middle" x="284.64" y="-169.1" font-family="Inter" font-size="10.00">Record Commands</text>
<text xml:space="preserve" text-anchor="middle" x="284.64" y="-154.85" font-family="Inter" font-size="10.00">Resolve Pipeline + Bindings</text>
</g>
<!-- compile&#45;&gt;record -->
<g id="edge12" class="edge">
<title>compile&#45;&gt;record</title>
<path fill="none" stroke="#64748b" stroke-width="1.4" d="M284.64,-217.55C284.64,-210.63 284.64,-202.76 284.64,-195.28"/>
<polygon fill="#64748b" stroke="#64748b" stroke-width="1.4" points="287.27,-195.72 284.65,-188.22 282.02,-195.72 287.27,-195.72"/>
</g>
<!-- submit -->
<g id="node11" class="node">
<title>submit</title>
<path fill="#fee2e2" stroke="#475569" d="M349.79,-110.9C349.79,-110.9 219.5,-110.9 219.5,-110.9 213.5,-110.9 207.5,-104.9 207.5,-98.9 207.5,-98.9 207.5,-86.9 207.5,-86.9 207.5,-80.9 213.5,-74.9 219.5,-74.9 219.5,-74.9 349.79,-74.9 349.79,-74.9 355.79,-74.9 361.79,-80.9 361.79,-86.9 361.79,-86.9 361.79,-98.9 361.79,-98.9 361.79,-104.9 355.79,-110.9 349.79,-110.9"/>
<text xml:space="preserve" text-anchor="middle" x="284.64" y="-90.53" font-family="Inter" font-size="10.00">Submit + Present / Readback</text>
</g>
<!-- record&#45;&gt;submit -->
<g id="edge13" class="edge">
<title>record&#45;&gt;submit</title>
<path fill="none" stroke="#64748b" stroke-width="1.4" d="M284.64,-142.51C284.64,-135.59 284.64,-127.79 284.64,-120.49"/>
<polygon fill="#64748b" stroke="#64748b" stroke-width="1.4" points="287.27,-120.61 284.65,-113.11 282.02,-120.61 287.27,-120.61"/>
</g>
<!-- end -->
<g id="node12" class="node">
<title>end</title>
<path fill="#f8fafc" stroke="#475569" d="M382.04,-42.9C382.04,-42.9 187.25,-42.9 187.25,-42.9 181.25,-42.9 175.25,-36.9 175.25,-30.9 175.25,-30.9 175.25,-12 175.25,-12 175.25,-6 181.25,0 187.25,0 187.25,0 382.04,0 382.04,0 388.04,0 394.04,-6 394.04,-12 394.04,-12 394.04,-30.9 394.04,-30.9 394.04,-36.9 388.04,-42.9 382.04,-42.9"/>
<text xml:space="preserve" text-anchor="middle" x="284.64" y="-26.2" font-family="Inter" font-size="10.00">EndFrame</text>
<text xml:space="preserve" text-anchor="middle" x="284.64" y="-11.95" font-family="Inter" font-size="10.00">Tag Resource Usage with Submission Serial</text>
</g>
<!-- submit&#45;&gt;end -->
<g id="edge14" class="edge">
<title>submit&#45;&gt;end</title>
<path fill="none" stroke="#64748b" stroke-width="1.4" d="M284.64,-74.73C284.64,-68.14 284.64,-60.4 284.64,-52.93"/>
<polygon fill="#64748b" stroke="#64748b" stroke-width="1.4" points="287.27,-53 284.65,-45.5 282.02,-53 287.27,-53"/>
</g>
</g>
</svg>
