<?xml version="1.0" encoding="UTF-8" standalone="no"?>
<!DOCTYPE svg PUBLIC "-//W3C//DTD SVG 1.1//EN"
 "http://www.w3.org/Graphics/SVG/1.1/DTD/svg11.dtd">
<!-- Generated by graphviz version 15.1.0 (0)
 -->
<!-- Title: G Pages: 1 -->
<svg width="725pt" height="534pt"
 viewBox="0.00 0.00 725.00 534.00" xmlns="http://www.w3.org/2000/svg" xmlns:xlink="http://www.w3.org/1999/xlink">
<g id="graph0" class="graph" transform="scale(1 1) rotate(0) translate(18 516)">
<title>G</title>
<!-- app -->
<g id="node1" class="node">
<title>app</title>
<path fill="#e0f2fe" stroke="#475569" d="M278.91,-493.05C278.91,-493.05 159.12,-493.05 159.12,-493.05 153.12,-493.05 147.12,-487.05 147.12,-481.05 147.12,-481.05 147.12,-469.05 147.12,-469.05 147.12,-463.05 153.12,-457.05 159.12,-457.05 159.12,-457.05 278.91,-457.05 278.91,-457.05 284.91,-457.05 290.91,-463.05 290.91,-469.05 290.91,-469.05 290.91,-481.05 290.91,-481.05 290.91,-487.05 284.91,-493.05 278.91,-493.05"/>
<text xml:space="preserve" text-anchor="middle" x="219.02" y="-472.47" font-family="Inter" font-size="11.00">Application / Animation</text>
</g>
<!-- gfx -->
<g id="node3" class="node">
<title>gfx</title>
<path fill="#dcfce7" stroke="#475569" d="M301.41,-399.35C301.41,-399.35 94.62,-399.35 94.62,-399.35 88.62,-399.35 82.62,-393.35 82.62,-387.35 82.62,-387.35 82.62,-365.45 82.62,-365.45 82.62,-359.45 88.62,-353.45 94.62,-353.45 94.62,-353.45 301.41,-353.45 301.41,-353.45 307.41,-353.45 313.41,-359.45 313.41,-365.45 313.41,-365.45 313.41,-387.35 313.41,-387.35 313.41,-393.35 307.41,-399.35 301.41,-399.35"/>
<text xml:space="preserve" text-anchor="middle" x="198.02" y="-381.7" font-family="Inter" font-size="11.00">GFX Public API</text>
<text xml:space="preserve" text-anchor="middle" x="198.02" y="-365.95" font-family="Inter" font-size="11.00">Renderer · RenderScene · RenderFeature</text>
</g>
<!-- app&#45;&gt;gfx -->
<g id="edge1" class="edge">
<title>app&#45;&gt;gfx</title>
<path fill="none" stroke="#64748b" stroke-width="1.4" d="M215.27,-456.77C212.37,-443.43 208.28,-424.61 204.81,-408.64"/>
<polygon fill="#64748b" stroke="#64748b" stroke-width="1.4" points="207.46,-408.47 203.3,-401.7 202.33,-409.59 207.46,-408.47"/>
</g>
<!-- ui -->
<g id="node2" class="node">
<title>ui</title>
<path fill="#fce7f3" stroke="#475569" d="M110.04,-498C110.04,-498 12,-498 12,-498 6,-498 0,-492 0,-486 0,-486 0,-464.1 0,-464.1 0,-458.1 6,-452.1 12,-452.1 12,-452.1 110.04,-452.1 110.04,-452.1 116.04,-452.1 122.04,-458.1 122.04,-464.1 122.04,-464.1 122.04,-486 122.04,-486 122.04,-492 116.04,-498 110.04,-498"/>
<text xml:space="preserve" text-anchor="middle" x="61.02" y="-480.35" font-family="Inter" font-size="11.00">Future UI Renderer</text>
<text xml:space="preserve" text-anchor="middle" x="61.02" y="-464.6" font-family="Inter" font-size="11.00">(separate module)</text>
</g>
<!-- ui&#45;&gt;gfx -->
<g id="edge2" class="edge">
<title>ui&#45;&gt;gfx</title>
<path fill="none" stroke="#64748b" stroke-width="1.4" d="M81.29,-451.73C91.59,-441.15 104.67,-428.79 117.77,-419.35 125.23,-413.97 133.47,-408.86 141.75,-404.18"/>
<polygon fill="#64748b" stroke="#64748b" stroke-width="1.4" points="142.84,-406.57 148.15,-400.66 140.32,-401.97 142.84,-406.57"/>
<text xml:space="preserve" text-anchor="middle" x="159.39" y="-423.55" font-family="Inter" font-size="9.00"> generic feature API</text>
</g>
<!-- resources -->
<g id="node4" class="node">
<title>resources</title>
<path fill="#f8fafc" stroke="#475569" d="M506.04,-312.45C506.04,-312.45 354,-312.45 354,-312.45 348,-312.45 342,-306.45 342,-300.45 342,-300.45 342,-262.8 342,-262.8 342,-256.8 348,-250.8 354,-250.8 354,-250.8 506.04,-250.8 506.04,-250.8 512.04,-250.8 518.04,-256.8 518.04,-262.8 518.04,-262.8 518.04,-300.45 518.04,-300.45 518.04,-306.45 512.04,-312.45 506.04,-312.45"/>
<text xml:space="preserve" text-anchor="middle" x="430.02" y="-294.8" font-family="Inter" font-size="11.00">Resource Services</text>
<text xml:space="preserve" text-anchor="middle" x="430.02" y="-279.05" font-family="Inter" font-size="11.00">Shaders · Pipelines · Materials</text>
<text xml:space="preserve" text-anchor="middle" x="430.02" y="-263.3" font-family="Inter" font-size="11.00">Buffers · Textures · Meshes</text>
</g>
<!-- gfx&#45;&gt;resources -->
<g id="edge3" class="edge">
<title>gfx&#45;&gt;resources</title>
<path fill="none" stroke="#64748b" stroke-width="1.4" d="M264.79,-352.97C281.92,-346.91 300.24,-340.17 317.02,-333.45 329.96,-328.27 343.59,-322.45 356.73,-316.66"/>
<polygon fill="#64748b" stroke="#64748b" stroke-width="1.4" points="357.56,-319.16 363.35,-313.72 355.43,-314.36 357.56,-319.16"/>
</g>
<!-- render_graph -->
<g id="node5" class="node">
<title>render_graph</title>
<path fill="#f8fafc" stroke="#475569" d="M383.41,-209.8C383.41,-209.8 206.62,-209.8 206.62,-209.8 200.62,-209.8 194.62,-203.8 194.62,-197.8 194.62,-197.8 194.62,-175.9 194.62,-175.9 194.62,-169.9 200.62,-163.9 206.62,-163.9 206.62,-163.9 383.41,-163.9 383.41,-163.9 389.41,-163.9 395.41,-169.9 395.41,-175.9 395.41,-175.9 395.41,-197.8 395.41,-197.8 395.41,-203.8 389.41,-209.8 383.41,-209.8"/>
<text xml:space="preserve" text-anchor="middle" x="295.02" y="-192.15" font-family="Inter" font-size="11.00">Render Graph</text>
<text xml:space="preserve" text-anchor="middle" x="295.02" y="-176.4" font-family="Inter" font-size="11.00">Passes · Dependencies · Transients</text>
</g>
<!-- gfx&#45;&gt;render_graph -->
<g id="edge5" class="edge">
<title>gfx&#45;&gt;render_graph</title>
<path fill="none" stroke="#64748b" stroke-width="1.4" d="M234.25,-353.13C248.51,-342.54 263.67,-328.64 273.02,-312.45 289.48,-283.94 294.21,-246.11 295.3,-219.65"/>
<polygon fill="#64748b" stroke="#64748b" stroke-width="1.4" points="297.92,-219.79 295.5,-212.22 292.67,-219.65 297.92,-219.79"/>
</g>
<!-- scene -->
<g id="node6" class="node">
<title>scene</title>
<path fill="#f8fafc" stroke="#475569" d="M248.41,-304.57C248.41,-304.57 65.62,-304.57 65.62,-304.57 59.62,-304.57 53.62,-298.57 53.62,-292.57 53.62,-292.57 53.62,-270.68 53.62,-270.68 53.62,-264.68 59.62,-258.68 65.62,-258.68 65.62,-258.68 248.41,-258.68 248.41,-258.68 254.41,-258.68 260.41,-264.68 260.41,-270.68 260.41,-270.68 260.41,-292.57 260.41,-292.57 260.41,-298.57 254.41,-304.57 248.41,-304.57"/>
<text xml:space="preserve" text-anchor="middle" x="157.02" y="-286.93" font-family="Inter" font-size="11.00">Render Scene</text>
<text xml:space="preserve" text-anchor="middle" x="157.02" y="-271.18" font-family="Inter" font-size="11.00">Snapshots · Visibility · Draw Packets</text>
</g>
<!-- gfx&#45;&gt;scene -->
<g id="edge4" class="edge">
<title>gfx&#45;&gt;scene</title>
<path fill="none" stroke="#64748b" stroke-width="1.4" d="M188.3,-353.41C183.03,-341.48 176.43,-326.55 170.65,-313.47"/>
<polygon fill="#64748b" stroke="#64748b" stroke-width="1.4" points="173.1,-312.51 167.67,-306.71 168.3,-314.63 173.1,-312.51"/>
</g>
<!-- resources&#45;&gt;render_graph -->
<g id="edge7" class="edge">
<title>resources&#45;&gt;render_graph</title>
<path fill="none" stroke="#64748b" stroke-width="1.4" d="M386.19,-250.5C369.78,-239.23 351.24,-226.48 335.18,-215.45"/>
<polygon fill="#64748b" stroke="#64748b" stroke-width="1.4" points="336.93,-213.46 329.26,-211.38 333.95,-217.79 336.93,-213.46"/>
</g>
<!-- rhi -->
<g id="node7" class="node">
<title>rhi</title>
<path fill="#fef3c7" stroke="#475569" d="M581.66,-122.9C581.66,-122.9 376.38,-122.9 376.38,-122.9 370.38,-122.9 364.38,-116.9 364.38,-110.9 364.38,-110.9 364.38,-89 364.38,-89 364.38,-83 370.38,-77 376.38,-77 376.38,-77 581.66,-77 581.66,-77 587.66,-77 593.66,-83 593.66,-89 593.66,-89 593.66,-110.9 593.66,-110.9 593.66,-116.9 587.66,-122.9 581.66,-122.9"/>
<text xml:space="preserve" text-anchor="middle" x="479.02" y="-105.25" font-family="Inter" font-size="11.00">RHI</text>
<text xml:space="preserve" text-anchor="middle" x="479.02" y="-89.5" font-family="Inter" font-size="11.00">Device · Queue · Resources · Commands</text>
</g>
<!-- resources&#45;&gt;rhi -->
<g id="edge9" class="edge">
<title>resources&#45;&gt;rhi</title>
<path fill="none" stroke="#64748b" stroke-width="1.4" d="M436.89,-250.74C442.46,-227.08 450.72,-193.24 459.02,-163.9 461.96,-153.51 465.44,-142.24 468.67,-132.15"/>
<polygon fill="#64748b" stroke="#64748b" stroke-width="1.4" points="471.08,-133.24 470.89,-125.29 466.08,-131.62 471.08,-133.24"/>
</g>
<!-- render_graph&#45;&gt;rhi -->
<g id="edge8" class="edge">
<title>render_graph&#45;&gt;rhi</title>
<path fill="none" stroke="#64748b" stroke-width="1.4" d="M343.36,-163.54C367.46,-152.42 396.76,-138.91 421.95,-127.28"/>
<polygon fill="#64748b" stroke="#64748b" stroke-width="1.4" points="423.05,-129.67 428.76,-124.14 420.85,-124.9 423.05,-129.67"/>
</g>
<!-- scene&#45;&gt;render_graph -->
<g id="edge6" class="edge">
<title>scene&#45;&gt;render_graph</title>
<path fill="none" stroke="#64748b" stroke-width="1.4" d="M190.07,-258.4C209.22,-245.53 233.49,-229.21 253.87,-215.51"/>
<polygon fill="#64748b" stroke="#64748b" stroke-width="1.4" points="255.24,-217.76 260,-211.39 252.31,-213.4 255.24,-217.76"/>
</g>
<!-- gpu -->
<g id="node12" class="node">
<title>gpu</title>
<path fill="#fee2e2" stroke="#475569" d="M521.29,-36C521.29,-36 436.75,-36 436.75,-36 430.75,-36 424.75,-30 424.75,-24 424.75,-24 424.75,-12 424.75,-12 424.75,-6 430.75,0 436.75,0 436.75,0 521.29,0 521.29,0 527.29,0 533.29,-6 533.29,-12 533.29,-12 533.29,-24 533.29,-24 533.29,-30 527.29,-36 521.29,-36"/>
<text xml:space="preserve" text-anchor="middle" x="479.02" y="-15.43" font-family="Inter" font-size="11.00">Dawn / WebGPU</text>
</g>
<!-- rhi&#45;&gt;gpu -->
<g id="edge10" class="edge">
<title>rhi&#45;&gt;gpu</title>
<path fill="none" stroke="#64748b" stroke-width="1.4" d="M479.02,-76.68C479.02,-67.12 479.02,-55.86 479.02,-45.84"/>
<polygon fill="#64748b" stroke="#64748b" stroke-width="1.4" points="481.65,-45.96 479.02,-38.46 476.4,-45.96 481.65,-45.96"/>
</g>
<!-- platform -->
<g id="node8" class="node">
<title>platform</title>
<path fill="#f1f5f9" stroke="#475569" d="M568.66,-204.85C568.66,-204.85 483.38,-204.85 483.38,-204.85 477.38,-204.85 471.38,-198.85 471.38,-192.85 471.38,-192.85 471.38,-180.85 471.38,-180.85 471.38,-174.85 477.38,-168.85 483.38,-168.85 483.38,-168.85 568.66,-168.85 568.66,-168.85 574.66,-168.85 580.66,-174.85 580.66,-180.85 580.66,-180.85 580.66,-192.85 580.66,-192.85 580.66,-198.85 574.66,-204.85 568.66,-204.85"/>
<text xml:space="preserve" text-anchor="middle" x="526.02" y="-184.28" font-family="Inter" font-size="11.00">Platform Surface</text>
</g>
<!-- platform&#45;&gt;rhi -->
<g id="edge11" class="edge">
<title>platform&#45;&gt;rhi</title>
<path fill="none" stroke="#64748b" stroke-width="1.4" d="M516.51,-168.67C510.62,-158.04 502.9,-144.09 495.99,-131.61"/>
<polygon fill="#64748b" stroke="#64748b" stroke-width="1.4" points="498.33,-130.41 492.4,-125.12 493.74,-132.95 498.33,-130.41"/>
</g>
<!-- core -->
<g id="node9" class="node">
<title>core</title>
<path fill="#f1f5f9" stroke="#475569" d="M677.41,-493.05C677.41,-493.05 560.62,-493.05 560.62,-493.05 554.62,-493.05 548.62,-487.05 548.62,-481.05 548.62,-481.05 548.62,-469.05 548.62,-469.05 548.62,-463.05 554.62,-457.05 560.62,-457.05 560.62,-457.05 677.41,-457.05 677.41,-457.05 683.41,-457.05 689.41,-463.05 689.41,-469.05 689.41,-469.05 689.41,-481.05 689.41,-481.05 689.41,-487.05 683.41,-493.05 677.41,-493.05"/>
<text xml:space="preserve" text-anchor="middle" x="619.02" y="-472.47" font-family="Inter" font-size="11.00">Core · Jobs · Filesystem</text>
</g>
<!-- core&#45;&gt;gfx -->
<g id="edge12" class="edge">
<title>core&#45;&gt;gfx</title>
<path fill="none" stroke="#64748b" stroke-width="1.4" d="M554.29,-456.66C548.12,-455.08 541.96,-453.54 536.02,-452.1 462.39,-434.24 379.31,-415.85 313.94,-401.79"/>
<polygon fill="#64748b" stroke="#64748b" stroke-width="1.4" points="314.8,-399.29 306.91,-400.28 313.69,-404.42 314.8,-399.29"/>
</g>
<!-- core&#45;&gt;rhi -->
<g id="edge13" class="edge">
<title>core&#45;&gt;rhi</title>
<path fill="none" stroke="#64748b" stroke-width="1.4" d="M619.02,-456.59C619.02,-437.23 619.02,-405.09 619.02,-377.4 619.02,-377.4 619.02,-377.4 619.02,-185.85 619.02,-158.91 599.83,-140.28 575.65,-127.5"/>
<polygon fill="#64748b" stroke="#64748b" stroke-width="1.4" points="577.08,-125.27 569.19,-124.32 574.76,-129.98 577.08,-125.27"/>
</g>
<!-- tools -->
<g id="node10" class="node">
<title>tools</title>
<path fill="#ede9fe" stroke="#475569" d="M511.54,-498C511.54,-498 362.5,-498 362.5,-498 356.5,-498 350.5,-492 350.5,-486 350.5,-486 350.5,-464.1 350.5,-464.1 350.5,-458.1 356.5,-452.1 362.5,-452.1 362.5,-452.1 511.54,-452.1 511.54,-452.1 517.54,-452.1 523.54,-458.1 523.54,-464.1 523.54,-464.1 523.54,-486 523.54,-486 523.54,-492 517.54,-498 511.54,-498"/>
<text xml:space="preserve" text-anchor="middle" x="437.02" y="-480.35" font-family="Inter" font-size="11.00">GFX Tools</text>
<text xml:space="preserve" text-anchor="middle" x="437.02" y="-464.6" font-family="Inter" font-size="11.00">Slang Compiler · USD Cooker</text>
</g>
<!-- artifacts -->
<g id="node11" class="node">
<title>artifacts</title>
<path fill="#f8fafc" stroke="#475569" d="M553.54,-399.35C553.54,-399.35 350.5,-399.35 350.5,-399.35 344.5,-399.35 338.5,-393.35 338.5,-387.35 338.5,-387.35 338.5,-365.45 338.5,-365.45 338.5,-359.45 344.5,-353.45 350.5,-353.45 350.5,-353.45 553.54,-353.45 553.54,-353.45 559.54,-353.45 565.54,-359.45 565.54,-365.45 565.54,-365.45 565.54,-387.35 565.54,-387.35 565.54,-393.35 559.54,-399.35 553.54,-399.35"/>
<text xml:space="preserve" text-anchor="middle" x="452.02" y="-381.7" font-family="Inter" font-size="11.00">Cooked Artifacts</text>
<text xml:space="preserve" text-anchor="middle" x="452.02" y="-365.95" font-family="Inter" font-size="11.00">Shaders · Meshes · Textures · Animation</text>
</g>
<!-- tools&#45;&gt;artifacts -->
<g id="edge14" class="edge">
<title>tools&#45;&gt;artifacts</title>
<path fill="none" stroke="#64748b" stroke-width="1.4" d="M440.5,-451.63C442.47,-438.95 444.96,-422.88 447.13,-408.94"/>
<polygon fill="#64748b" stroke="#64748b" stroke-width="1.4" points="449.68,-409.6 448.23,-401.79 444.49,-408.8 449.68,-409.6"/>
</g>
<!-- artifacts&#45;&gt;resources -->
<g id="edge15" class="edge">
<title>artifacts&#45;&gt;resources</title>
<path fill="none" stroke="#64748b" stroke-width="1.4" d="M446.81,-353.41C444.59,-344.05 441.92,-332.83 439.38,-322.11"/>
<polygon fill="#64748b" stroke="#64748b" stroke-width="1.4" points="441.97,-321.63 437.68,-314.94 436.86,-322.84 441.97,-321.63"/>
</g>
</g>
</svg>
