<?xml version="1.0" encoding="UTF-8" standalone="no"?>
<!DOCTYPE svg PUBLIC "-//W3C//DTD SVG 1.1//EN"
 "http://www.w3.org/Graphics/SVG/1.1/DTD/svg11.dtd">
<!-- Generated by graphviz version 15.1.0 (0)
 -->
<!-- Title: G Pages: 1 -->
<svg width="1208pt" height="201pt"
 viewBox="0.00 0.00 1208.00 201.00" xmlns="http://www.w3.org/2000/svg" xmlns:xlink="http://www.w3.org/1999/xlink">
<g id="graph0" class="graph" transform="scale(1 1) rotate(0) translate(18 183.46)">
<title>G</title>
<!-- source -->
<g id="node1" class="node">
<title>source</title>
<path fill="#ede9fe" stroke="#475569" d="M74.91,-131.73C74.91,-131.73 12,-131.73 12,-131.73 6,-131.73 0,-125.73 0,-119.73 0,-119.73 0,-107.73 0,-107.73 0,-101.73 6,-95.73 12,-95.73 12,-95.73 74.91,-95.73 74.91,-95.73 80.91,-95.73 86.91,-101.73 86.91,-107.73 86.91,-107.73 86.91,-119.73 86.91,-119.73 86.91,-125.73 80.91,-131.73 74.91,-131.73"/>
<text xml:space="preserve" text-anchor="middle" x="43.45" y="-111.36" font-family="Inter" font-size="10.00">Shader Source</text>
</g>
<!-- artifact -->
<g id="node2" class="node">
<title>artifact</title>
<path fill="#f8fafc" stroke="#475569" d="M219.07,-134.46C219.07,-134.46 138.91,-134.46 138.91,-134.46 132.91,-134.46 126.91,-128.46 126.91,-122.46 126.91,-122.46 126.91,-105 126.91,-105 126.91,-99 132.91,-93 138.91,-93 138.91,-93 219.07,-93 219.07,-93 225.07,-93 231.07,-99 231.07,-105 231.07,-105 231.07,-122.46 231.07,-122.46 231.07,-128.46 225.07,-134.46 219.07,-134.46"/>
<text xml:space="preserve" text-anchor="middle" x="178.99" y="-118.48" font-family="Inter" font-size="10.00">Shader Artifact</text>
<text xml:space="preserve" text-anchor="middle" x="178.99" y="-104.23" font-family="Inter" font-size="10.00">WGSL + Reflection</text>
</g>
<!-- source&#45;&gt;artifact -->
<g id="edge1" class="edge">
<title>source&#45;&gt;artifact</title>
<path fill="none" stroke="#64748b" stroke-width="1.3" d="M87.07,-113.73C96.76,-113.73 107.22,-113.73 117.49,-113.73"/>
<polygon fill="#64748b" stroke="#64748b" stroke-width="1.3" points="117.46,-116.18 124.46,-113.73 117.46,-111.28 117.46,-116.18"/>
</g>
<!-- program -->
<g id="node3" class="node">
<title>program</title>
<path fill="#dcfce7" stroke="#475569" d="M388.73,-134.46C388.73,-134.46 283.07,-134.46 283.07,-134.46 277.07,-134.46 271.07,-128.46 271.07,-122.46 271.07,-122.46 271.07,-105 271.07,-105 271.07,-99 277.07,-93 283.07,-93 283.07,-93 388.73,-93 388.73,-93 394.73,-93 400.73,-99 400.73,-105 400.73,-105 400.73,-122.46 400.73,-122.46 400.73,-128.46 394.73,-134.46 388.73,-134.46"/>
<text xml:space="preserve" text-anchor="middle" x="335.9" y="-118.48" font-family="Inter" font-size="10.00">ShaderProgram</text>
<text xml:space="preserve" text-anchor="middle" x="335.9" y="-104.23" font-family="Inter" font-size="10.00">Stable Handle + Version</text>
</g>
<!-- artifact&#45;&gt;program -->
<g id="edge2" class="edge">
<title>artifact&#45;&gt;program</title>
<path fill="none" stroke="#64748b" stroke-width="1.3" d="M231.14,-113.73C241.06,-113.73 251.62,-113.73 262.08,-113.73"/>
<polygon fill="#64748b" stroke="#64748b" stroke-width="1.3" points="261.85,-116.18 268.85,-113.73 261.85,-111.28 261.85,-116.18"/>
</g>
<!-- bgl -->
<g id="node4" class="node">
<title>bgl</title>
<path fill="#f8fafc" stroke="#475569" d="M520.14,-165.46C520.14,-165.46 462.48,-165.46 462.48,-165.46 456.48,-165.46 450.48,-159.46 450.48,-153.46 450.48,-153.46 450.48,-136 450.48,-136 450.48,-130 456.48,-124 462.48,-124 462.48,-124 520.14,-124 520.14,-124 526.14,-124 532.14,-130 532.14,-136 532.14,-136 532.14,-153.46 532.14,-153.46 532.14,-159.46 526.14,-165.46 520.14,-165.46"/>
<text xml:space="preserve" text-anchor="middle" x="491.31" y="-149.48" font-family="Inter" font-size="10.00">Bind Group</text>
<text xml:space="preserve" text-anchor="middle" x="491.31" y="-135.23" font-family="Inter" font-size="10.00">Layout Cache</text>
</g>
<!-- program&#45;&gt;bgl -->
<g id="edge3" class="edge">
<title>program&#45;&gt;bgl</title>
<path fill="none" stroke="#64748b" stroke-width="1.3" d="M401.07,-126.7C414.55,-129.42 428.55,-132.25 441.36,-134.84"/>
<polygon fill="#64748b" stroke="#64748b" stroke-width="1.3" points="440.75,-137.21 448.09,-136.2 441.72,-132.41 440.75,-137.21"/>
</g>
<!-- mt -->
<g id="node7" class="node">
<title>mt</title>
<path fill="#f8fafc" stroke="#475569" d="M529.89,-100.73C529.89,-100.73 452.73,-100.73 452.73,-100.73 446.73,-100.73 440.73,-94.73 440.73,-88.73 440.73,-88.73 440.73,-76.73 440.73,-76.73 440.73,-70.73 446.73,-64.73 452.73,-64.73 452.73,-64.73 529.89,-64.73 529.89,-64.73 535.89,-64.73 541.89,-70.73 541.89,-76.73 541.89,-76.73 541.89,-88.73 541.89,-88.73 541.89,-94.73 535.89,-100.73 529.89,-100.73"/>
<text xml:space="preserve" text-anchor="middle" x="491.31" y="-80.36" font-family="Inter" font-size="10.00">MaterialTemplate</text>
</g>
<!-- program&#45;&gt;mt -->
<g id="edge6" class="edge">
<title>program&#45;&gt;mt</title>
<path fill="none" stroke="#64748b" stroke-width="1.3" d="M401.07,-100.76C411.23,-98.71 421.69,-96.6 431.72,-94.57"/>
<polygon fill="#64748b" stroke="#64748b" stroke-width="1.3" points="432.09,-96.99 438.47,-93.21 431.12,-92.19 432.09,-96.99"/>
</g>
<!-- pl -->
<g id="node5" class="node">
<title>pl</title>
<path fill="#f8fafc" stroke="#475569" d="M659.8,-165.46C659.8,-165.46 602.14,-165.46 602.14,-165.46 596.14,-165.46 590.14,-159.46 590.14,-153.46 590.14,-153.46 590.14,-136 590.14,-136 590.14,-130 596.14,-124 602.14,-124 602.14,-124 659.8,-124 659.8,-124 665.8,-124 671.8,-130 671.8,-136 671.8,-136 671.8,-153.46 671.8,-153.46 671.8,-159.46 665.8,-165.46 659.8,-165.46"/>
<text xml:space="preserve" text-anchor="middle" x="630.97" y="-149.48" font-family="Inter" font-size="10.00">Pipeline</text>
<text xml:space="preserve" text-anchor="middle" x="630.97" y="-135.23" font-family="Inter" font-size="10.00">Layout Cache</text>
</g>
<!-- bgl&#45;&gt;pl -->
<g id="edge4" class="edge">
<title>bgl&#45;&gt;pl</title>
<path fill="none" stroke="#64748b" stroke-width="1.3" d="M532.5,-144.73C547.76,-144.73 565.32,-144.73 581.29,-144.73"/>
<polygon fill="#64748b" stroke="#64748b" stroke-width="1.3" points="581,-147.18 588,-144.73 581,-142.28 581,-147.18"/>
</g>
<!-- pipeline -->
<g id="node6" class="node">
<title>pipeline</title>
<path fill="#dbeafe" stroke="#475569" d="M917.37,-165.46C917.37,-165.46 854.46,-165.46 854.46,-165.46 848.46,-165.46 842.46,-159.46 842.46,-153.46 842.46,-153.46 842.46,-136 842.46,-136 842.46,-130 848.46,-124 854.46,-124 854.46,-124 917.37,-124 917.37,-124 923.37,-124 929.37,-130 929.37,-136 929.37,-136 929.37,-153.46 929.37,-153.46 929.37,-159.46 923.37,-165.46 917.37,-165.46"/>
<text xml:space="preserve" text-anchor="middle" x="885.91" y="-149.48" font-family="Inter" font-size="10.00">Pipeline Cache</text>
<text xml:space="preserve" text-anchor="middle" x="885.91" y="-135.23" font-family="Inter" font-size="10.00">PipelineKey</text>
</g>
<!-- pl&#45;&gt;pipeline -->
<g id="edge5" class="edge">
<title>pl&#45;&gt;pipeline</title>
<path fill="none" stroke="#64748b" stroke-width="1.3" d="M672.05,-144.73C715.63,-144.73 785.42,-144.73 833.13,-144.73"/>
<polygon fill="#64748b" stroke="#64748b" stroke-width="1.3" points="833.1,-147.18 840.1,-144.73 833.1,-142.28 833.1,-147.18"/>
</g>
<!-- pass -->
<g id="node13" class="node">
<title>pass</title>
<path fill="#f8fafc" stroke="#475569" d="M1028.53,-131.73C1028.53,-131.73 981.37,-131.73 981.37,-131.73 975.37,-131.73 969.37,-125.73 969.37,-119.73 969.37,-119.73 969.37,-107.73 969.37,-107.73 969.37,-101.73 975.37,-95.73 981.37,-95.73 981.37,-95.73 1028.53,-95.73 1028.53,-95.73 1034.53,-95.73 1040.53,-101.73 1040.53,-107.73 1040.53,-107.73 1040.53,-119.73 1040.53,-119.73 1040.53,-125.73 1034.53,-131.73 1028.53,-131.73"/>
<text xml:space="preserve" text-anchor="middle" x="1004.95" y="-111.36" font-family="Inter" font-size="10.00">Graph Pass</text>
</g>
<!-- pipeline&#45;&gt;pass -->
<g id="edge13" class="edge">
<title>pipeline&#45;&gt;pass</title>
<path fill="none" stroke="#64748b" stroke-width="1.3" d="M929.83,-133.36C939.82,-130.72 950.47,-127.9 960.48,-125.24"/>
<polygon fill="#64748b" stroke="#64748b" stroke-width="1.3" points="961.04,-127.63 967.18,-123.47 959.79,-122.89 961.04,-127.63"/>
</g>
<!-- mi -->
<g id="node8" class="node">
<title>mi</title>
<path fill="#f8fafc" stroke="#475569" d="M668.05,-100.73C668.05,-100.73 593.89,-100.73 593.89,-100.73 587.89,-100.73 581.89,-94.73 581.89,-88.73 581.89,-88.73 581.89,-76.73 581.89,-76.73 581.89,-70.73 587.89,-64.73 593.89,-64.73 593.89,-64.73 668.05,-64.73 668.05,-64.73 674.05,-64.73 680.05,-70.73 680.05,-76.73 680.05,-76.73 680.05,-88.73 680.05,-88.73 680.05,-94.73 674.05,-100.73 668.05,-100.73"/>
<text xml:space="preserve" text-anchor="middle" x="630.97" y="-80.36" font-family="Inter" font-size="10.00">MaterialInstance</text>
</g>
<!-- mt&#45;&gt;mi -->
<g id="edge7" class="edge">
<title>mt&#45;&gt;mi</title>
<path fill="none" stroke="#64748b" stroke-width="1.3" d="M542.01,-82.73C552.02,-82.73 562.61,-82.73 572.85,-82.73"/>
<polygon fill="#64748b" stroke="#64748b" stroke-width="1.3" points="572.76,-85.18 579.76,-82.73 572.76,-80.28 572.76,-85.18"/>
</g>
<!-- scene -->
<g id="node11" class="node">
<title>scene</title>
<path fill="#f8fafc" stroke="#475569" d="M790.46,-103.46C790.46,-103.46 732.05,-103.46 732.05,-103.46 726.05,-103.46 720.05,-97.46 720.05,-91.46 720.05,-91.46 720.05,-74 720.05,-74 720.05,-68 726.05,-62 732.05,-62 732.05,-62 790.46,-62 790.46,-62 796.46,-62 802.46,-68 802.46,-74 802.46,-74 802.46,-91.46 802.46,-91.46 802.46,-97.46 796.46,-103.46 790.46,-103.46"/>
<text xml:space="preserve" text-anchor="middle" x="761.25" y="-87.48" font-family="Inter" font-size="10.00">RenderScene</text>
<text xml:space="preserve" text-anchor="middle" x="761.25" y="-73.23" font-family="Inter" font-size="10.00">Instance</text>
</g>
<!-- mi&#45;&gt;scene -->
<g id="edge10" class="edge">
<title>mi&#45;&gt;scene</title>
<path fill="none" stroke="#64748b" stroke-width="1.3" d="M680.47,-82.73C690.36,-82.73 700.77,-82.73 710.69,-82.73"/>
<polygon fill="#64748b" stroke="#64748b" stroke-width="1.3" points="710.67,-85.18 717.67,-82.73 710.67,-80.28 710.67,-85.18"/>
</g>
<!-- mesh -->
<g id="node9" class="node">
<title>mesh</title>
<path fill="#f8fafc" stroke="#475569" d="M658.3,-41.73C658.3,-41.73 603.64,-41.73 603.64,-41.73 597.64,-41.73 591.64,-35.73 591.64,-29.73 591.64,-29.73 591.64,-17.73 591.64,-17.73 591.64,-11.73 597.64,-5.73 603.64,-5.73 603.64,-5.73 658.3,-5.73 658.3,-5.73 664.3,-5.73 670.3,-11.73 670.3,-17.73 670.3,-17.73 670.3,-29.73 670.3,-29.73 670.3,-35.73 664.3,-41.73 658.3,-41.73"/>
<text xml:space="preserve" text-anchor="middle" x="630.97" y="-21.36" font-family="Inter" font-size="10.00">MeshHandle</text>
</g>
<!-- mesh&#45;&gt;scene -->
<g id="edge9" class="edge">
<title>mesh&#45;&gt;scene</title>
<path fill="none" stroke="#64748b" stroke-width="1.3" d="M670.46,-41.43C683.42,-47.39 698.04,-54.12 711.67,-60.39"/>
<polygon fill="#64748b" stroke="#64748b" stroke-width="1.3" points="710.39,-62.49 717.78,-63.19 712.44,-58.04 710.39,-62.49"/>
</g>
<!-- texture -->
<g id="node10" class="node">
<title>texture</title>
<path fill="#f8fafc" stroke="#475569" d="M529.89,-41.46C529.89,-41.46 452.73,-41.46 452.73,-41.46 446.73,-41.46 440.73,-35.46 440.73,-29.46 440.73,-29.46 440.73,-12 440.73,-12 440.73,-6 446.73,0 452.73,0 452.73,0 529.89,0 529.89,0 535.89,0 541.89,-6 541.89,-12 541.89,-12 541.89,-29.46 541.89,-29.46 541.89,-35.46 535.89,-41.46 529.89,-41.46"/>
<text xml:space="preserve" text-anchor="middle" x="491.31" y="-25.48" font-family="Inter" font-size="10.00">Texture / Sampler</text>
<text xml:space="preserve" text-anchor="middle" x="491.31" y="-11.23" font-family="Inter" font-size="10.00">Handles</text>
</g>
<!-- texture&#45;&gt;mi -->
<g id="edge8" class="edge">
<title>texture&#45;&gt;mi</title>
<path fill="none" stroke="#64748b" stroke-width="1.3" d="M539.3,-41.89C552.84,-47.99 567.64,-54.66 581.29,-60.8"/>
<polygon fill="#64748b" stroke="#64748b" stroke-width="1.3" points="579.99,-62.9 587.37,-63.55 582,-58.44 579.99,-62.9"/>
</g>
<!-- packet -->
<g id="node12" class="node">
<title>packet</title>
<path fill="#f8fafc" stroke="#475569" d="M911.37,-100.73C911.37,-100.73 860.46,-100.73 860.46,-100.73 854.46,-100.73 848.46,-94.73 848.46,-88.73 848.46,-88.73 848.46,-76.73 848.46,-76.73 848.46,-70.73 854.46,-64.73 860.46,-64.73 860.46,-64.73 911.37,-64.73 911.37,-64.73 917.37,-64.73 923.37,-70.73 923.37,-76.73 923.37,-76.73 923.37,-88.73 923.37,-88.73 923.37,-94.73 917.37,-100.73 911.37,-100.73"/>
<text xml:space="preserve" text-anchor="middle" x="885.91" y="-80.36" font-family="Inter" font-size="10.00">DrawPacket</text>
</g>
<!-- scene&#45;&gt;packet -->
<g id="edge11" class="edge">
<title>scene&#45;&gt;packet</title>
<path fill="none" stroke="#64748b" stroke-width="1.3" d="M802.76,-82.73C814.44,-82.73 827.26,-82.73 839.23,-82.73"/>
<polygon fill="#64748b" stroke="#64748b" stroke-width="1.3" points="839.21,-85.18 846.21,-82.73 839.21,-80.28 839.21,-85.18"/>
</g>
<!-- packet&#45;&gt;pass -->
<g id="edge12" class="edge">
<title>packet&#45;&gt;pass</title>
<path fill="none" stroke="#64748b" stroke-width="1.3" d="M923.62,-92.45C935.28,-95.54 948.27,-98.98 960.36,-102.18"/>
<polygon fill="#64748b" stroke="#64748b" stroke-width="1.3" points="959.67,-104.54 967.07,-103.96 960.93,-99.8 959.67,-104.54"/>
</g>
<!-- command -->
<g id="node14" class="node">
<title>command</title>
<path fill="#fef3c7" stroke="#475569" d="M1159.94,-131.73C1159.94,-131.73 1092.53,-131.73 1092.53,-131.73 1086.53,-131.73 1080.53,-125.73 1080.53,-119.73 1080.53,-119.73 1080.53,-107.73 1080.53,-107.73 1080.53,-101.73 1086.53,-95.73 1092.53,-95.73 1092.53,-95.73 1159.94,-95.73 1159.94,-95.73 1165.94,-95.73 1171.94,-101.73 1171.94,-107.73 1171.94,-107.73 1171.94,-119.73 1171.94,-119.73 1171.94,-125.73 1165.94,-131.73 1159.94,-131.73"/>
<text xml:space="preserve" text-anchor="middle" x="1126.23" y="-111.36" font-family="Inter" font-size="10.00">RHI Commands</text>
</g>
<!-- pass&#45;&gt;command -->
<g id="edge14" class="edge">
<title>pass&#45;&gt;command</title>
<path fill="none" stroke="#64748b" stroke-width="1.3" d="M1040.77,-113.73C1050.44,-113.73 1061.17,-113.73 1071.65,-113.73"/>
<polygon fill="#64748b" stroke="#64748b" stroke-width="1.3" points="1071.4,-116.18 1078.4,-113.73 1071.4,-111.28 1071.4,-116.18"/>
</g>
</g>
</svg>
