<?xml version="1.0" encoding="UTF-8" standalone="no"?>
<!DOCTYPE svg PUBLIC "-//W3C//DTD SVG 1.1//EN"
 "http://www.w3.org/Graphics/SVG/1.1/DTD/svg11.dtd">
<!-- Generated by graphviz version 15.1.0 (0)
 -->
<!-- Title: G Pages: 1 -->
<svg width="480pt" height="763pt"
 viewBox="0.00 0.00 480.00 763.00" xmlns="http://www.w3.org/2000/svg" xmlns:xlink="http://www.w3.org/1999/xlink">
<g id="graph0" class="graph" transform="scale(1 1) rotate(0) translate(18 744.64)">
<title>G</title>
<!-- changed -->
<g id="node1" class="node">
<title>changed</title>
<path fill="#ede9fe" stroke="#475569" d="M378.85,-726.64C378.85,-726.64 263.5,-726.64 263.5,-726.64 257.5,-726.64 251.5,-720.64 251.5,-714.64 251.5,-714.64 251.5,-702.64 251.5,-702.64 251.5,-696.64 257.5,-690.64 263.5,-690.64 263.5,-690.64 378.85,-690.64 378.85,-690.64 384.85,-690.64 390.85,-696.64 390.85,-702.64 390.85,-702.64 390.85,-714.64 390.85,-714.64 390.85,-720.64 384.85,-726.64 378.85,-726.64"/>
<text xml:space="preserve" text-anchor="middle" x="321.18" y="-706.27" font-family="Inter" font-size="10.00">Source / Include Changed</text>
</g>
<!-- hash -->
<g id="node2" class="node">
<title>hash</title>
<path fill="#f8fafc" stroke="#475569" d="M380.73,-659.64C380.73,-659.64 261.62,-659.64 261.62,-659.64 255.62,-659.64 249.62,-653.64 249.62,-647.64 249.62,-647.64 249.62,-635.64 249.62,-635.64 249.62,-629.64 255.62,-623.64 261.62,-623.64 261.62,-623.64 380.73,-623.64 380.73,-623.64 386.73,-623.64 392.73,-629.64 392.73,-635.64 392.73,-635.64 392.73,-647.64 392.73,-647.64 392.73,-653.64 386.73,-659.64 380.73,-659.64"/>
<text xml:space="preserve" text-anchor="middle" x="321.18" y="-639.27" font-family="Inter" font-size="10.00">Debounce + Content Hash</text>
</g>
<!-- changed&#45;&gt;hash -->
<g id="edge1" class="edge">
<title>changed&#45;&gt;hash</title>
<path fill="none" stroke="#64748b" stroke-width="1.3" d="M321.18,-690.22C321.18,-683.66 321.18,-676.05 321.18,-668.87"/>
<polygon fill="#64748b" stroke="#64748b" stroke-width="1.3" points="323.63,-669.07 321.18,-662.07 318.73,-669.07 323.63,-669.07"/>
</g>
<!-- deps -->
<g id="node3" class="node">
<title>deps</title>
<path fill="#f8fafc" stroke="#475569" d="M370.6,-592.64C370.6,-592.64 271.75,-592.64 271.75,-592.64 265.75,-592.64 259.75,-586.64 259.75,-580.64 259.75,-580.64 259.75,-563.18 259.75,-563.18 259.75,-557.18 265.75,-551.18 271.75,-551.18 271.75,-551.18 370.6,-551.18 370.6,-551.18 376.6,-551.18 382.6,-557.18 382.6,-563.18 382.6,-563.18 382.6,-580.64 382.6,-580.64 382.6,-586.64 376.6,-592.64 370.6,-592.64"/>
<text xml:space="preserve" text-anchor="middle" x="321.18" y="-576.66" font-family="Inter" font-size="10.00">Dependency Graph</text>
<text xml:space="preserve" text-anchor="middle" x="321.18" y="-562.41" font-family="Inter" font-size="10.00">Find Affected Variants</text>
</g>
<!-- hash&#45;&gt;deps -->
<g id="edge2" class="edge">
<title>hash&#45;&gt;deps</title>
<path fill="none" stroke="#64748b" stroke-width="1.3" d="M321.18,-623.2C321.18,-616.69 321.18,-609.12 321.18,-601.86"/>
<polygon fill="#64748b" stroke="#64748b" stroke-width="1.3" points="323.63,-601.9 321.18,-594.9 318.73,-601.9 323.63,-601.9"/>
</g>
<!-- compile -->
<g id="node4" class="node">
<title>compile</title>
<path fill="#f8fafc" stroke="#475569" d="M381.48,-520.18C381.48,-520.18 260.88,-520.18 260.88,-520.18 254.88,-520.18 248.88,-514.18 248.88,-508.18 248.88,-508.18 248.88,-490.72 248.88,-490.72 248.88,-484.72 254.88,-478.72 260.88,-478.72 260.88,-478.72 381.48,-478.72 381.48,-478.72 387.48,-478.72 393.48,-484.72 393.48,-490.72 393.48,-490.72 393.48,-508.18 393.48,-508.18 393.48,-514.18 387.48,-520.18 381.48,-520.18"/>
<text xml:space="preserve" text-anchor="middle" x="321.18" y="-504.2" font-family="Inter" font-size="10.00">Worker Compilation</text>
<text xml:space="preserve" text-anchor="middle" x="321.18" y="-489.95" font-family="Inter" font-size="10.00">Slang → WGSL + Reflection</text>
</g>
<!-- deps&#45;&gt;compile -->
<g id="edge3" class="edge">
<title>deps&#45;&gt;compile</title>
<path fill="none" stroke="#64748b" stroke-width="1.3" d="M321.18,-550.91C321.18,-544.16 321.18,-536.48 321.18,-529.19"/>
<polygon fill="#64748b" stroke="#64748b" stroke-width="1.3" points="323.63,-529.23 321.18,-522.23 318.73,-529.23 323.63,-529.23"/>
</g>
<!-- valid -->
<g id="node5" class="node">
<title>valid</title>
<path fill="#fef3c7" stroke="#475569" d="M310.74,-441.79C310.74,-441.79 283.76,-426.44 283.76,-426.44 278.54,-423.48 278.54,-417.54 283.76,-414.58 283.76,-414.58 310.74,-399.23 310.74,-399.23 315.96,-396.27 326.39,-396.27 331.61,-399.23 331.61,-399.23 358.59,-414.58 358.59,-414.58 363.81,-417.54 363.81,-423.48 358.59,-426.44 358.59,-426.44 331.61,-441.79 331.61,-441.79 326.39,-444.75 315.96,-444.75 310.74,-441.79"/>
<text xml:space="preserve" text-anchor="middle" x="321.18" y="-418.14" font-family="Inter" font-size="10.00">Valid?</text>
</g>
<!-- compile&#45;&gt;valid -->
<g id="edge4" class="edge">
<title>compile&#45;&gt;valid</title>
<path fill="none" stroke="#64748b" stroke-width="1.3" d="M321.18,-478.23C321.18,-471.64 321.18,-464.12 321.18,-456.75"/>
<polygon fill="#64748b" stroke="#64748b" stroke-width="1.3" points="323.63,-457.22 321.18,-450.22 318.73,-457.22 323.63,-457.22"/>
</g>
<!-- abi -->
<g id="node6" class="node">
<title>abi</title>
<path fill="#fef3c7" stroke="#475569" d="M220.61,-347.34C220.61,-347.34 145.64,-326.55 145.64,-326.55 139.86,-324.94 139.86,-321.74 145.64,-320.13 145.64,-320.13 220.61,-299.34 220.61,-299.34 226.39,-297.73 237.96,-297.73 243.74,-299.34 243.74,-299.34 318.71,-320.13 318.71,-320.13 324.49,-321.74 324.49,-324.94 318.71,-326.55 318.71,-326.55 243.74,-347.34 243.74,-347.34 237.96,-348.95 226.39,-348.95 220.61,-347.34"/>
<text xml:space="preserve" text-anchor="middle" x="232.18" y="-320.97" font-family="Inter" font-size="10.00">ABI Compatible?</text>
</g>
<!-- valid&#45;&gt;abi -->
<g id="edge6" class="edge">
<title>valid&#45;&gt;abi</title>
<path fill="none" stroke="#64748b" stroke-width="1.3" d="M304.85,-402.05C291.65,-387.94 272.83,-367.81 257.64,-351.58"/>
<polygon fill="#64748b" stroke="#64748b" stroke-width="1.3" points="259.73,-350.22 253.16,-346.78 256.15,-353.56 259.73,-350.22"/>
<text xml:space="preserve" text-anchor="middle" x="290.25" y="-369.75" font-family="Inter" font-size="9.00"> yes</text>
</g>
<!-- keep -->
<g id="node10" class="node">
<title>keep</title>
<path fill="#fee2e2" stroke="#475569" d="M432.1,-253.38C432.1,-253.38 342.25,-253.38 342.25,-253.38 336.25,-253.38 330.25,-247.38 330.25,-241.38 330.25,-241.38 330.25,-223.92 330.25,-223.92 330.25,-217.92 336.25,-211.92 342.25,-211.92 342.25,-211.92 432.1,-211.92 432.1,-211.92 438.1,-211.92 444.1,-217.92 444.1,-223.92 444.1,-223.92 444.1,-241.38 444.1,-241.38 444.1,-247.38 438.1,-253.38 432.1,-253.38"/>
<text xml:space="preserve" text-anchor="middle" x="387.18" y="-237.4" font-family="Inter" font-size="10.00">Keep Active Version</text>
<text xml:space="preserve" text-anchor="middle" x="387.18" y="-223.15" font-family="Inter" font-size="10.00">Publish Diagnostics</text>
</g>
<!-- valid&#45;&gt;keep -->
<g id="edge5" class="edge">
<title>valid&#45;&gt;keep</title>
<path fill="none" stroke="#64748b" stroke-width="1.3" d="M330.77,-398.3C342.64,-371.45 362.91,-323.57 376.18,-281.13 378.08,-275.02 379.83,-268.38 381.33,-262.05"/>
<polygon fill="#64748b" stroke="#64748b" stroke-width="1.3" points="383.63,-262.98 382.8,-255.61 378.85,-261.9 383.63,-262.98"/>
<text xml:space="preserve" text-anchor="middle" x="376.95" y="-321.17" font-family="Inter" font-size="9.00"> no</text>
</g>
<!-- candidate -->
<g id="node7" class="node">
<title>candidate</title>
<path fill="#f8fafc" stroke="#475569" d="M148.35,-180.92C148.35,-180.92 24,-180.92 24,-180.92 18,-180.92 12,-174.92 12,-168.92 12,-168.92 12,-151.46 12,-151.46 12,-145.46 18,-139.46 24,-139.46 24,-139.46 148.35,-139.46 148.35,-139.46 154.35,-139.46 160.35,-145.46 160.35,-151.46 160.35,-151.46 160.35,-168.92 160.35,-168.92 160.35,-174.92 154.35,-180.92 148.35,-180.92"/>
<text xml:space="preserve" text-anchor="middle" x="86.18" y="-164.94" font-family="Inter" font-size="10.00">Create Candidate</text>
<text xml:space="preserve" text-anchor="middle" x="86.18" y="-150.69" font-family="Inter" font-size="10.00">Shader Modules + Pipelines</text>
</g>
<!-- abi&#45;&gt;candidate -->
<g id="edge7" class="edge">
<title>abi&#45;&gt;candidate</title>
<path fill="none" stroke="#64748b" stroke-width="1.3" d="M174.77,-311.55C141.98,-302.13 103.5,-284.81 83.43,-253.38 71.47,-234.66 73.28,-209.15 77.45,-189.71"/>
<polygon fill="#64748b" stroke="#64748b" stroke-width="1.3" points="79.77,-190.54 79.03,-183.16 75,-189.39 79.77,-190.54"/>
<text xml:space="preserve" text-anchor="middle" x="107.8" y="-230.48" font-family="Inter" font-size="9.00"> compatible</text>
</g>
<!-- abi&#45;&gt;keep -->
<g id="edge9" class="edge">
<title>abi&#45;&gt;keep</title>
<path fill="none" stroke="#64748b" stroke-width="1.3" d="M250.67,-300.86C261.01,-289.92 274.67,-277.12 288.93,-268.38 299.04,-262.18 310.42,-256.88 321.75,-252.42"/>
<polygon fill="#64748b" stroke="#64748b" stroke-width="1.3" points="322.45,-254.77 328.14,-250.01 320.72,-250.19 322.45,-254.77"/>
<text xml:space="preserve" text-anchor="middle" x="332.05" y="-272.58" font-family="Inter" font-size="9.00"> engine ABI changed</text>
</g>
<!-- migrate -->
<g id="node11" class="node">
<title>migrate</title>
<path fill="#f8fafc" stroke="#475569" d="M285.35,-253.38C285.35,-253.38 155,-253.38 155,-253.38 149,-253.38 143,-247.38 143,-241.38 143,-241.38 143,-223.92 143,-223.92 143,-217.92 149,-211.92 155,-211.92 155,-211.92 285.35,-211.92 285.35,-211.92 291.35,-211.92 297.35,-217.92 297.35,-223.92 297.35,-223.92 297.35,-241.38 297.35,-241.38 297.35,-247.38 291.35,-253.38 285.35,-253.38"/>
<text xml:space="preserve" text-anchor="middle" x="220.18" y="-237.4" font-family="Inter" font-size="10.00">Migrate Material Parameters</text>
<text xml:space="preserve" text-anchor="middle" x="220.18" y="-223.15" font-family="Inter" font-size="10.00">Rebuild Affected Bindings</text>
</g>
<!-- abi&#45;&gt;migrate -->
<g id="edge8" class="edge">
<title>abi&#45;&gt;migrate</title>
<path fill="none" stroke="#64748b" stroke-width="1.3" d="M220.16,-299.36C217.69,-293.56 215.45,-287.24 214.18,-281.13 212.92,-275.12 212.89,-268.62 213.48,-262.42"/>
<polygon fill="#64748b" stroke="#64748b" stroke-width="1.3" points="215.89,-262.86 214.45,-255.58 211.04,-262.17 215.89,-262.86"/>
<text xml:space="preserve" text-anchor="middle" x="238.18" y="-272.58" font-family="Inter" font-size="9.00"> migratable</text>
</g>
<!-- commit -->
<g id="node8" class="node">
<title>commit</title>
<path fill="#dcfce7" stroke="#475569" d="M160.35,-108.46C160.35,-108.46 12,-108.46 12,-108.46 6,-108.46 0,-102.46 0,-96.46 0,-96.46 0,-84.46 0,-84.46 0,-78.46 6,-72.46 12,-72.46 12,-72.46 160.35,-72.46 160.35,-72.46 166.35,-72.46 172.35,-78.46 172.35,-84.46 172.35,-84.46 172.35,-96.46 172.35,-96.46 172.35,-102.46 166.35,-108.46 160.35,-108.46"/>
<text xml:space="preserve" text-anchor="middle" x="86.18" y="-88.09" font-family="Inter" font-size="10.00">Atomic Frame&#45;Boundary Commit</text>
</g>
<!-- candidate&#45;&gt;commit -->
<g id="edge11" class="edge">
<title>candidate&#45;&gt;commit</title>
<path fill="none" stroke="#64748b" stroke-width="1.3" d="M86.18,-139.24C86.18,-132.43 86.18,-124.72 86.18,-117.51"/>
<polygon fill="#64748b" stroke="#64748b" stroke-width="1.3" points="88.63,-117.72 86.18,-110.72 83.73,-117.72 88.63,-117.72"/>
</g>
<!-- retire -->
<g id="node9" class="node">
<title>retire</title>
<path fill="#f8fafc" stroke="#475569" d="M136.73,-41.46C136.73,-41.46 35.63,-41.46 35.63,-41.46 29.63,-41.46 23.63,-35.46 23.63,-29.46 23.63,-29.46 23.63,-12 23.63,-12 23.63,-6 29.63,0 35.63,0 35.63,0 136.73,0 136.73,0 142.73,0 148.73,-6 148.73,-12 148.73,-12 148.73,-29.46 148.73,-29.46 148.73,-35.46 142.73,-41.46 136.73,-41.46"/>
<text xml:space="preserve" text-anchor="middle" x="86.18" y="-25.48" font-family="Inter" font-size="10.00">Retire Old Versions</text>
<text xml:space="preserve" text-anchor="middle" x="86.18" y="-11.23" font-family="Inter" font-size="10.00">After GPU Completion</text>
</g>
<!-- commit&#45;&gt;retire -->
<g id="edge12" class="edge">
<title>commit&#45;&gt;retire</title>
<path fill="none" stroke="#64748b" stroke-width="1.3" d="M86.18,-72.02C86.18,-65.51 86.18,-57.94 86.18,-50.68"/>
<polygon fill="#64748b" stroke="#64748b" stroke-width="1.3" points="88.63,-50.72 86.18,-43.72 83.73,-50.72 88.63,-50.72"/>
</g>
<!-- migrate&#45;&gt;candidate -->
<g id="edge10" class="edge">
<title>migrate&#45;&gt;candidate</title>
<path fill="none" stroke="#64748b" stroke-width="1.3" d="M181.78,-211.46C166.36,-203.35 148.45,-193.94 132.33,-185.46"/>
<polygon fill="#64748b" stroke="#64748b" stroke-width="1.3" points="133.66,-183.39 126.32,-182.3 131.38,-187.73 133.66,-183.39"/>
</g>
</g>
</svg>
